<svg xmlns="http://www.w3.org/2000/svg" viewBox="0 0 150 150">
<!-- SVG created with Arrow, by QuiverAI (https://quiver.ai) -->
  <style type="text/css">.cls-0 {fill:#F05E57;}
.cls-1 {fill:#0B2946;}
.cls-2 {fill:#0D2A48;}</style>
  <path class="cls-0" d="m17.2 9.1 17.8 41 30.2-29.6"/>
  <path class="cls-0" d="m104.8 85c-0.6 0.1-2.4 0.4-3 0.7l3 29.3c6.7-10.4 16.6-22.8 28.4-33.3-5 0.2-16.2 0.8-28.4 3.3z"/>
  <path class="cls-1" d="m74.7 24.9c-18.6 0-36.3 14.5-36.3 36.5 0.5 18.1 13.7 35.7 36.5 35.8 19.7 0.1 36.4-14.7 36.4-35.8s-17.2-36.5-36.6-36.5z"/>
  <path class="cls-2" d="m48.3 123.9h-5.1v-3.9h14.8v3.8h-5.1v16.6h-4.6v-16.5z"/>
  <path class="cls-2" d="m62.8 126.8v7.4c0 2.3 0.8 3.2 2.5 3.2 2.2 0 2.6-1.2 2.7-3.2v-7.4h4v7.8c0 4.4-2.4 6.2-6.7 6.2-4.1 0-6.7-1.6-6.7-5.7v-8.4l4.2 0.1z"/>
  <path class="cls-2" d="m75.5 126.8h3.5l-0.1 2.2c1-1.9 2.7-2.8 5.1-2.8 3.6 0 5.1 1.8 5.1 4.6v9.5h-4.3v-7.3c0-2.1-0.6-3.1-2.5-3.1s-2.9 1.2-2.9 3.5v6.9h-3.9v-13.5z"/>
  <path class="cls-2" d="m102.4 138.4c-1 1.6-2.4 2.4-4.6 2.4-4.2 0-6-3.4-6-7.2 0-4 2.5-7.3 6-7.3 2.1 0 3.6 0.9 4.6 2.4v-2h3.8v13.6h-3.8v-1.9zm-3.4-1c2.1 0 3.4-1.6 3.4-3.7s-1.2-3.6-3.3-3.6c-2.2-0.1-3 1.7-3.1 3.6 0 2 0.9 3.7 3 3.7z"/>
</svg>
