<svg xmlns="http://www.w3.org/2000/svg" viewBox="0 0 118.4 99">
<!-- SVG created with Arrow, by QuiverAI (https://quiver.ai) -->
  <style type="text/css">.cls-0 {fill:#2EAA96;}
.cls-1 {fill:#282727;}</style>
  <path class="cls-0" d="m55 39.8v5.2c10.4 0.8 25.6-3.3 35-11.1l2.1-2c1.8-1.6 4.3 8 12.1 11.6 1.4 0.7 3.2 1.3 4.9 1.5-4.2-6.1-4.7-11.1-7.4-16.6-0.6-1.5 0-1.9 0.9-4.3 1.4-3.6 2.6-9 6.5-13.5-7.2 0.6-11.5 5.4-14.2 9.8-1.7 3-3.2 5.1-6.9 8-7.6 6.5-19.5 10.7-29.7 11.4h-3.3z"/>
  <path class="cls-1" d="m9.4 10.8v20.5h25.9v57.4h24.3v-57.8h21.9c2-1.3 5.8-3.3 9.4-7.7l-0.3-0.2c-9.6-5.8-18.7-10.5-34.1-12l-1.8-0.1-45.3-0.1z"/>
</svg>
