<svg xmlns="http://www.w3.org/2000/svg" viewBox="0 0 159.8 174">
<!-- SVG created with Arrow, by QuiverAI (https://quiver.ai) -->
  <style type="text/css">.cls-0 {fill:#06060A;}
.cls-1 {fill:#FFFFFF;}</style>
  <path class="cls-0" d="m68.9 155.3v2.5h-4.1v11.2h-3.1v-11.3h-4.2v-2.5l11.4 0.1z"/>
  <path class="cls-0" d="m72.1 158.7v6.4c0 0.6 0.1 1.1 0.3 1.4 0.3 0.3 0.8 0.5 1.6 0.5s1.4-0.3 1.8-1c0.1-0.4 0.2-1 0.2-1.6v-5.7h2.8l-0.3 10.3h-2.7v-1.5s-0.1 0.1-0.2 0.3-0.2 0.3-0.3 0.4c-0.5 0.4-0.9 0.7-1.3 0.8s-0.9 0.2-1.4 0.2c-1.6 0-2.6-0.5-3.1-1.6-0.3-0.6-0.4-1.4-0.4-2.6v-6.4l3 0.1z"/>
  <path class="cls-0" d="m89.5 159.2c0.7 0.5 1.1 1.4 1.1 2.6v7.2h-2.8v-6.5c0-0.5-0.1-0.9-0.2-1.2-0.3-0.5-0.8-0.8-1.5-0.8-0.9 0-1.5 0.4-1.8 1.1-0.2 0.4-0.3 0.9-0.3 1.6l-0.1 5.8h-2.9v-10.4h2.7v1.5c0.4-0.5 0.7-0.9 1-1.1 0.6-0.4 1.3-0.6 2.1-0.6 1 0 2 0.3 2.7 0.8z"/>
  <path class="cls-0" d="m97.4 162.5c0.5-0.1 0.8-0.1 1.1-0.2 0.3-0.2 0.5-0.4 0.5-0.8s-0.1-0.7-0.4-0.9c-0.3-0.1-0.7-0.2-1.2-0.2-0.7 0-1.1 0.2-1.4 0.5-0.1 0.3-0.2 0.6-0.3 1h-2.8c0.1-0.9 0.3-1.6 0.7-2.1 0.8-1 2-1.4 3.7-1.4 1.1 0 2.1 0.1 2.9 0.6 0.9 0.4 1.5 1.3 1.5 2.5v4.8 1.3c0 0.3 0.1 0.6 0.2 0.7s0.2 0.2 0.4 0.3v0.3h-3c-0.1-0.2-0.1-0.4-0.2-0.6v-0.6c-0.4 0.4-0.8 0.7-1.3 1-0.6 0.3-1.2 0.5-2 0.5-0.9 0.1-1.6-0.2-2.2-0.7s-1-1.2-1-2.2c0-1.2 0.5-2.1 1.4-2.7 0.5-0.3 1.3-0.5 2.3-0.7l1.1-0.4zm1.4 1.4c-0.1 0.1-0.3 0.2-0.4 0.2-0.2 0.1-0.4 0.1-0.7 0.2l-0.5 0.1c-0.6 0.1-1 0.2-1.3 0.3-0.4 0.3-0.6 0.7-0.6 1.2s0.1 0.8 0.4 1c0.2 0.2 0.5 0.3 0.9 0.3s1-0.1 1.5-0.4 0.8-0.9 0.9-1.8l-0.2-1.1z"/>
  <rect class="cls-0" x="9.3" y="8.1" width="140.7" height="138.2"/>
  <path class="cls-1" d="m128.4 74.8c-0.2 1.9 2.4 11.9 7 17.4-6.8-0.5-10-7.1-13-11.4-1.9-2.7-3.7-3.2-7.1-2.7-1.1 0.2-1.6 1.6-2.3 1.4-1.6-0.7-2.1-0.4-3.4 1.4-2-0.5-2-0.5-4.4 0.5-1.7 0.8-4.3 1.9-6.9 2.9-2.8 1-2.8 3.5 1.6 7.9-4.9-0.2-7.3-2.8-10-4.4-0.6-0.3-1.3-0.4-2.5-0.1-10.2 2.2-21.8 2.9-32.4 1.1l-4.7-0.9c3.3-1.7 5.3-5.2 5.3-9.2 0.1-2.7-0.6-5.4-2.7-8 3 6.5 0.4 15.8-7.6 15.7-3.5 0-9.9-3-12.2-4.1-2-1.1-6-3.3-6.6-5 1.4-0.5 4.7-0.7 6.2-0.3-1.7-2.2-5.4-2.3-5.4-3.1-0.3-0.7 0.5-1.1 2.3-2.1 7.7-4.2 16.7-8.3 30.3-10.5 2-3.7 4.9-7.7 8.4-10.5 1.2 2.4 1.3 1 2.1 2.3 0.2 0.9 0.7 0.6 1.1 1.3 0.6 0.5 0.9 0.7 1.4 0.7 0.7 1 1.1 0.5 1.7 0.8 0.7 0.6 0.5 1.3 2 1.2 1 0.9 0.8 0.9 1.7 0.9 1.2 0.4 1.3 1 3.1 1.1 0.6 0.3 0.3 2.2 1.8 2.6l2.4 0.4c1.8 0.4 1.6-0.3 4.1-1.7 2.1-1.3 5.7-3.6 8.2-3.7-3.6 2.9-4.7 7-1.2 8.6 3.4 1.1 6.5 2.6 10 4.3 1.1 0.5 1.8 0.6 2.8 0.1 0.6-0.3 0.8 1.4 1.5 1.7 1.2 0.5 1.8-0.7 2.4-0.4 0.6 0.4 0.8 1.1 1.4 1.5 5.6 1.3 6.6-0.7 7.8-2.1 2.4-3.5 5.8-10.8 13-12.7-3.5 3.9-5.9 11.9-7.2 17.1z"/>
</svg>
