<svg xmlns="http://www.w3.org/2000/svg" viewBox="0 0 165.8 74">
<!-- SVG created with Arrow, by QuiverAI (https://quiver.ai) -->
  <style type="text/css">.cls-0 {fill:#E95F5A;}
.cls-1 {fill:#082945;}</style>
  <path class="cls-0" d="m103.9 16.3c0-2.8 2.2-5.2 5.2-5.2 2.8-0.1 5.3 2.3 5.3 5.2 0 3-2.3 5.1-5.2 5.5-2.9 0.1-5.3-2.1-5.3-5.5z"/>
  <polygon class="cls-1" points="7.6 26.8 7.6 34.8 18.1 34.8 18.1 61.8 28.1 61.8 28.1 34.8 38.8 34.8 38.8 26.8"/>
  <path class="cls-1" d="m42.6 26.8v19.3c0 9.6 4.7 16.3 16.1 16.3 10.8 0 16.4-5.8 16.4-15.5v-20.1h-9.8v20c0 3.8-1.6 7.1-6.2 7.1-4.1 0-6.4-2.5-6.4-7.4v-19.7h-10.1z"/>
  <path class="cls-1" d="m104.3 26.8v17.9l-14.9-17.9h-8.1v34.9h9.7v-18.3l15 18.4h8.3v-35z"/>
  <path class="cls-1" d="m132.3 26.8-15.1 35h10.4l2.6-6.8h14.9l2.5 6.8h10.1l-2.4-5.8 2.1 0.6c-4-7.2-2-13.7 0.8-17.3-4.5 0.5-7.5 3.1-15.3 8.3l-0.2 0.2h-0.1l-0.1 0.1-0.3 0.1-0.1-0.1h0.8-9.6l4.3-10.9 3.9 9.5c2.5-1.1 4.7-3.4 7.7-4.8l-6-14.9h-10.9z"/>
</svg>
