<svg xmlns="http://www.w3.org/2000/svg" viewBox="0 0 118.5 118.5">
<!-- SVG created with Arrow, by QuiverAI (https://quiver.ai) -->
  <style type="text/css">.cls-0 {fill:#2A4F6E;}
.cls-1 {fill:#4C7390;}
.cls-2 {fill:#EE9122;}
.cls-3 {fill:#ED9121;}
.cls-4 {fill:none;}
.cls-5 {display:none;}</style>
  <path class="cls-0" d="m73 0h-27.5c-30.4 1.2-45.5 11.6-45.5 49v18c0 33.7 7.1 48.8 34.6 51l7.4 0.5h34.6l7-0.5c26.3-1.6 34.9-15 34.9-48v-21c-0.7-33.6-12.3-47.8-45.5-49z"/>
  <path class="cls-1" d="m104.2 59.4c-7.8-7.4-18.1-14.6-37.4-14.6s-33.6 8.9-41.4 14.6c8.4 5.4 20.5 14.1 41.4 14.1 15 0 29.8-5.6 37.4-14.1z"/>
  <path class="cls-2" d="m14.5 43.6 6 15.8-6 15.2c3.6-2.2 11.9-10 14.9-12.9l-4-2.3 4-2.5c-2.7-2.9-10.4-10.3-14.9-13.3z"/>
  <path class="cls-3" d="m93.5 55.6c0.8 0.8 0.2 3.4-1.8 3.6-2.6 0-3.6-3-1.7-4.2 1.2-0.7 2.8-0.6 3.5 0.6z"/>
</svg>
