<svg width="24" height="24" viewBox="0 0 24 24" fill="none" xmlns="http://www.w3.org/2000/svg">
<rect width="24" height="24" fill="white"/>
<path d="M12.5 19.5557L13.6645 18.883C13.9037 18.7449 14.2096 18.8268 14.3477 19.0661C14.4858 19.3052 14.4039 19.611 14.1648 19.7491L12.5002 20.711C12.1907 20.8898 11.8093 20.8898 11.4997 20.7111L9.83433 19.7491C9.59519 19.611 9.51327 19.3052 9.65133 19.066C9.78942 18.8268 10.0953 18.7448 10.3345 18.8829L11.5 19.5557V17.5C11.5 17.2239 11.7239 17 12 17C12.2761 17 12.5 17.2239 12.5 17.5V19.5557Z" fill="black"/>
<path d="M19.7949 15.9225C19.7949 16.2798 19.6042 16.61 19.2947 16.7886L17.6284 17.7501C17.3892 17.8881 17.0834 17.8061 16.9454 17.567C16.8073 17.3278 16.8893 17.0219 17.1286 16.8838L18.2949 16.2109L16.5123 15.1813C16.2735 15.0434 16.1917 14.7381 16.3295 14.4993C16.4673 14.2602 16.7729 14.1783 17.0118 14.3162L18.7949 15.3457V14C18.7949 13.7239 19.0188 13.5 19.2949 13.5C19.5711 13.5 19.7949 13.7239 19.7949 14V15.9225Z" fill="black"/>
<path d="M5.20605 15.3447L6.98714 14.3163C7.22613 14.1783 7.53173 14.2603 7.6696 14.4993C7.80734 14.7381 7.72554 15.0434 7.48682 15.1813L5.70508 16.2109L6.87075 16.8839C7.10984 17.0219 7.1917 17.3276 7.05358 17.5666C6.91556 17.8055 6.6101 17.8873 6.37117 17.7494L4.70624 16.7886C4.39673 16.61 4.20605 16.2799 4.20605 15.9225V14C4.20605 13.7239 4.42991 13.5 4.70605 13.5C4.9822 13.5 5.20605 13.7239 5.20605 14V15.3447Z" fill="black"/>
<path d="M19.2949 7.21132C19.6043 7.38996 19.7949 7.72008 19.7949 8.07733V10C19.7949 10.2761 19.5711 10.5 19.2949 10.5C19.0188 10.5 18.7949 10.2761 18.7949 10V8.65332L17.0116 9.68214C16.7727 9.81996 16.4673 9.73814 16.3293 9.49934C16.1911 9.26029 16.2731 8.95451 16.5122 8.81654L18.2949 7.78809L17.1288 7.1149C16.8899 6.97698 16.8079 6.67157 16.9456 6.43253C17.0835 6.19318 17.3894 6.11106 17.6286 6.24918L19.2949 7.21132Z" fill="black"/>
<path d="M7.05337 6.43287C7.19112 6.67171 7.10928 6.97698 6.87054 7.11488L5.70508 7.78809L7.48682 8.81644C7.72601 8.95449 7.808 9.26031 7.66993 9.49949C7.53186 9.73869 7.22601 9.82065 6.98683 9.68254L5.20605 8.6543V10C5.20605 10.2761 4.9822 10.5 4.70605 10.5C4.42991 10.5 4.20605 10.2761 4.20605 10V8.0773C4.20605 7.72006 4.39663 7.38996 4.70599 7.21131L6.37097 6.24988C6.60993 6.1119 6.91551 6.19384 7.05337 6.43287Z" fill="black"/>
<path d="M14.1636 4.24902C14.4028 4.3871 14.4848 4.69291 14.3467 4.9321C14.2086 5.1713 13.9028 5.25327 13.6636 5.11517L12.5 4.44336V6.5C12.5 6.77614 12.2761 7 12 7C11.7239 7 11.5 6.77614 11.5 6.5V4.44336L10.3339 5.1158C10.095 5.2536 9.78955 5.17174 9.65154 4.93292C9.51339 4.69386 9.59528 4.38807 9.83441 4.25004L11.5001 3.28858C11.8094 3.11 12.1906 3.11001 12.4999 3.2886L14.1636 4.24902Z" fill="black"/>
<path d="M9.40234 10.5L12.0004 12M12.0004 12L14.5985 10.5M12.0004 12L12.0001 15" stroke="black" stroke-linecap="round"/>
</svg>
